HIERARCHY
ROOT Hips
{
	OFFSET 51.868301 -9.634774 85.466499
	CHANNELS 6 Xposition Yposition Zposition Xrotation Yrotation Zrotation
	JOINT spine
	{
		OFFSET 0.000000 -0.367607 6.392601
		CHANNELS 3 Xrotation Yrotation Zrotation
		JOINT spine1
		{
			OFFSET 0.000000 -0.000001 9.176109
			CHANNELS 3 Xrotation Yrotation Zrotation
			JOINT spine2
			{
				OFFSET 0.000000 -0.000002 8.792381
				CHANNELS 3 Xrotation Yrotation Zrotation
				JOINT Neck
				{
					OFFSET 0.000000 -1.076243 22.573700
					CHANNELS 3 Xrotation Yrotation Zrotation
					JOINT Head
					{
						OFFSET 0.000000 -0.000001 6.820114
						CHANNELS 3 Xrotation Yrotation Zrotation
						End Site
						{
							OFFSET 0.000000 5.444268 16.508499
						}
					}
				}
				JOINT RightShoulder
				{
					OFFSET -3.702209 0.515507 9.495087
					CHANNELS 3 Xrotation Yrotation Zrotation
					JOINT RightArm
					{
						OFFSET 0.000000 -0.000003 12.453705
						CHANNELS 3 Xrotation Yrotation Zrotation
						JOINT RightArmRoll
						{
							OFFSET 0.000000 -0.000001 6.286865
							CHANNELS 3 Xrotation Yrotation Zrotation
							JOINT RightForeArm
							{
								OFFSET 0.000000 -0.000003 18.311401
								CHANNELS 3 Xrotation Yrotation Zrotation
								JOINT RightForeArmRoll
								{
									OFFSET 0.000000 -0.000001 7.054825
									CHANNELS 3 Xrotation Yrotation Zrotation
									JOINT RightHand
									{
										OFFSET 0.000000 -0.000002 14.157501
										CHANNELS 3 Xrotation Yrotation Zrotation
										End Site
										{
											OFFSET 0.000000 0.000000 0.100006
										}
									}
								}
							}
						}
					}
				}
				JOINT LeftShoulder
				{
					OFFSET 3.702209 0.515507 9.495087
					CHANNELS 3 Xrotation Yrotation Zrotation
					JOINT LeftArm
					{
						OFFSET 0.000000 -0.000003 12.453705
						CHANNELS 3 Xrotation Yrotation Zrotation
						JOINT LeftArmRoll
						{
							OFFSET 0.000000 -0.000001 6.286865
							CHANNELS 3 Xrotation Yrotation Zrotation
							JOINT LeftForeArm
							{
								OFFSET 0.000000 -0.000003 18.311401
								CHANNELS 3 Xrotation Yrotation Zrotation
								JOINT LeftForeArmRoll
								{
									OFFSET 0.000000 -0.000001 7.054825
									CHANNELS 3 Xrotation Yrotation Zrotation
									JOINT LeftHand
									{
										OFFSET 0.000000 -0.000002 14.157501
										CHANNELS 3 Xrotation Yrotation Zrotation
										End Site
										{
											OFFSET 0.000000 0.000000 0.100006
										}
									}
								}
							}
						}
					}
				}
			}
		}
	}
	JOINT RightUpLeg
	{
		OFFSET -5.666161 0.871611 -1.039032
		CHANNELS 3 Xrotation Yrotation Zrotation
		JOINT RightUpLegRoll
		{
			OFFSET 0.000000 -0.000003 16.600502
			CHANNELS 3 Xrotation Yrotation Zrotation
			JOINT RightLeg
			{
				OFFSET 0.000000 0.000003 -20.557198
				CHANNELS 3 Xrotation Yrotation Zrotation
				JOINT RightLegRoll
				{
					OFFSET 0.000000 -0.000003 20.624397
					CHANNELS 3 Xrotation Yrotation Zrotation
					JOINT RightFoot
					{
						OFFSET 0.000000 -0.000003 17.166397
						CHANNELS 3 Xrotation Yrotation Zrotation
						JOINT RightToeBase
						{
							OFFSET 0.000000 -0.000003 14.350204
							CHANNELS 3 Xrotation Yrotation Zrotation
							End Site
							{
								OFFSET 0.006081 0.801060 6.949707
							}
						}
					}
				}
			}
		}
	}
	JOINT LeftUpLeg
	{
		OFFSET 5.666161 0.871611 -1.039032
		CHANNELS 3 Xrotation Yrotation Zrotation
		JOINT LeftUpLegRoll
		{
			OFFSET 0.000000 -0.000003 16.600601
			CHANNELS 3 Xrotation Yrotation Zrotation
			JOINT LeftLeg
			{
				OFFSET 0.000000 -0.000004 20.557098
				CHANNELS 3 Xrotation Yrotation Zrotation
				JOINT LeftLegRoll
				{
					OFFSET 0.000000 -0.000003 20.815102
					CHANNELS 3 Xrotation Yrotation Zrotation
					JOINT LeftFoot
					{
						OFFSET 0.000000 -0.000003 16.975708
						CHANNELS 3 Xrotation Yrotation Zrotation
						JOINT LeftToeBase
						{
							OFFSET 0.000000 -0.000003 14.350204
							CHANNELS 3 Xrotation Yrotation Zrotation
							End Site
							{
								OFFSET -0.027260 0.801060 6.949707
							}
						}
					}
				}
			}
		}
	}
}
MOTION
Frames: 8
Frame Time: 0.041667
55.394096 -10.931517 85.493996 -0.686376 0.693772 -1.419009 -1.541371 0.418992 -0.225240 0.921703 0.841771 -0.439995 2.566833 0.836418 -0.450272 10.511970 -7.291951 -1.023381 3.497788 3.671356 -0.601480 -7.146323 -67.347817 -9.045034 -52.401433 -114.772190 -50.497313 -0.000000 -0.000000 -0.000002 9.216795 -16.491632 1.180730 0.000001 -0.000001 -3.003449 -5.000159 -7.998881 0.000164 0.084491 54.408874 -0.693107 -35.972031 118.344557 36.975796 -0.000004 -0.000006 0.000003 8.467160 12.580651 -0.429185 0.000001 -0.000002 3.010550 -5.000206 7.998724 -0.000167 -0.260544 -179.149018 -0.199457 -179.999991 0.000005 -0.963994 174.719176 -4.631344 -0.571603 -0.000001 0.000001 0.098664 68.455161 7.202439 1.373391 25.703154 -7.352695 -0.141129 -0.491069 177.546096 1.879886 -0.000005 -0.000004 -1.018560 -8.562254 1.353322 0.604200 -0.000005 0.000005 -0.162432 71.453703 -6.777827 -2.259910 25.616068 7.352502 -0.234653 
55.393394 -10.932516 85.493591 -0.657376 0.690241 -1.430020 -1.543370 0.418568 -0.225202 0.917703 0.840980 -0.440925 2.562832 0.835616 -0.451176 10.527940 -7.280865 -1.017667 3.465512 3.676853 -0.597119 -7.120319 -67.345563 -9.015474 -52.382008 -114.784471 -50.493464 0.000001 -0.000000 -0.000003 9.228422 -16.495670 1.183367 0.000002 -0.000001 -3.003449 -5.000162 -7.998882 0.000163 0.036941 54.387990 -0.638560 -35.911420 118.366058 36.916865 -0.000005 -0.000006 0.000003 8.439233 12.574007 -0.426144 -0.000000 -0.000003 3.010548 -5.000210 7.998721 -0.000167 -0.311156 -179.151012 -0.206093 -179.999991 0.000005 -0.963994 174.690421 -4.627143 -0.573556 -0.000000 0.000000 0.099321 68.466007 7.206218 1.362904 25.701945 -7.352698 -0.141089 -0.551152 177.555111 1.891642 -0.000005 -0.000004 -1.018600 -8.619343 1.348106 0.605996 -0.000006 0.000005 -0.163846 71.474398 -6.777490 -2.259897 25.617487 7.352497 -0.237233 
55.392498 -10.926210 85.482590 -0.628693 0.686834 -1.441214 -1.545462 0.418099 -0.225144 0.913540 0.840123 -0.441878 2.558671 0.834749 -0.452102 10.545103 -7.268838 -1.011878 3.432521 3.681512 -0.592693 -7.092798 -67.343363 -8.984205 -52.362317 -114.796601 -50.489055 0.000001 -0.000001 -0.000002 9.239843 -16.499714 1.185968 -0.000002 -0.000002 -3.003449 -5.000159 -7.998883 0.000164 -0.010280 54.367503 -0.584354 -35.851786 118.387874 36.857757 -0.000004 -0.000004 0.000002 8.410115 12.566708 -0.422929 -0.000001 -0.000003 3.010549 -5.000210 7.998723 -0.000166 -0.361676 -179.153007 -0.212518 -179.999991 0.000005 -0.963994 174.661242 -4.622939 -0.576536 -0.000001 0.000000 0.099979 68.477018 7.209896 1.352589 25.700839 -7.352701 -0.141122 -0.610262 177.563130 1.903099 -0.000005 -0.000004 -1.018650 -8.675429 1.343022 0.607746 -0.000006 0.000005 -0.165243 71.494889 -6.777174 -2.259900 25.618791 7.352499 -0.239739 
55.393696 -10.912217 85.483292 -0.600226 0.683510 -1.452529 -1.547601 0.417599 -0.225074 0.909261 0.839219 -0.442846 2.554390 0.833835 -0.453042 10.563152 -7.256151 -1.006012 3.399036 3.685594 -0.588223 -7.064279 -67.341301 -8.951820 -52.344049 -114.807967 -50.486064 0.000000 -0.000000 -0.000003 9.251105 -16.503766 1.188546 -0.000001 -0.000002 -3.003449 -5.000160 -7.998882 0.000163 -0.057260 54.347388 -0.530401 -35.792773 118.409881 36.798484 -0.000003 -0.000005 0.000002 8.380166 12.558735 -0.419552 0.000000 -0.000003 3.010550 -5.000208 7.998722 -0.000168 -0.412127 -179.155029 -0.218797 -179.999991 0.000005 -0.963994 174.631750 -4.618746 -0.578541 -0.000001 0.000001 0.100636 68.488008 7.213491 1.342455 25.699825 -7.352699 -0.141191 -0.668684 177.571162 1.914349 -0.000005 -0.000004 -1.018720 -8.730836 1.338019 0.609458 -0.000006 0.000005 -0.166629 71.515270 -6.776813 -2.260004 25.620009 7.352509 -0.242174 
55.390797 -10.910512 85.481293 -0.571889 0.680231 -1.463910 -1.549770 0.417080 -0.224996 0.904917 0.838291 -0.443824 2.550049 0.832895 -0.453991 10.581698 -7.243077 -1.000120 3.365260 3.689324 -0.583722 -7.035145 -67.339258 -8.918750 -52.324075 -114.819961 -50.481044 0.000001 0.000000 -0.000003 9.262294 -16.507818 1.191124 0.000000 -0.000001 -3.003450 -5.000161 -7.998881 0.000163 -0.104084 54.327458 -0.476618 -35.734218 118.432010 36.739185 -0.000002 -0.000005 0.000003 8.349749 12.550469 -0.416108 -0.000002 -0.000002 3.010550 -5.000211 7.998724 -0.000167 -0.462536 -179.157023 -0.224989 -179.999991 0.000005 -0.963994 174.602107 -4.614536 -0.580553 -0.000001 0.000001 0.101294 68.499086 7.217054 1.332411 25.698812 -7.352697 -0.141309 -0.726710 177.580192 1.925444 -0.000005 -0.000004 -1.018790 -8.785834 1.333068 0.611145 -0.000006 0.000005 -0.168008 71.535467 -6.776537 -2.259930 25.621319 7.352499 -0.244595 
55.396294 -10.911914 85.479591 -0.543581 0.676953 -1.475307 -1.551951 0.416558 -0.224916 0.900556 0.837355 -0.444804 2.545688 0.831948 -0.454941 10.600443 -7.229923 -0.994206 3.331413 3.692975 -0.579212 -7.005892 -67.337230 -8.885549 -52.303970 -114.831872 -50.475873 0.000000 0.000001 -0.000003 9.273448 -16.511772 1.193678 0.000000 -0.000002 -3.003449 -5.000160 -7.998881 0.000164 -0.150835 54.307510 -0.422917 -35.676820 118.453375 36.681084 -0.000005 -0.000005 0.000004 8.319212 12.542209 -0.412662 -0.000001 -0.000002 3.010551 -5.000209 7.998722 -0.000165 -0.512941 -179.159031 -0.231157 -179.999991 0.000005 -0.963994 174.572409 -4.611319 -0.582658 -0.000001 0.000001 0.101951 68.510083 7.220602 1.322368 25.697803 -7.352694 -0.141431 -0.784643 177.588238 1.936510 -0.000005 -0.000004 -1.018860 -8.840742 1.328127 0.612820 -0.000006 0.000005 -0.169385 71.555746 -6.776183 -2.259941 25.622538 7.352498 -0.246995 
55.389797 -10.904217 85.475502 -0.515211 0.673639 -1.486662 -1.554111 0.416045 -0.224840 0.896227 0.836433 -0.445779 2.541357 0.831015 -0.455887 10.618888 -7.216943 -0.988337 3.297719 3.696795 -0.574711 -6.976927 -67.335181 -8.852663 -52.285750 -114.843251 -50.472830 0.000002 -0.000000 -0.000003 9.284650 -16.515824 1.196253 0.000001 -0.000002 -3.003449 -5.000159 -7.998882 0.000164 -0.197595 54.287443 -0.369216 -35.618422 118.475573 36.622071 -0.000004 -0.000006 0.000002 8.288918 12.534031 -0.409256 -0.000001 -0.000002 3.010550 -5.000209 7.998724 -0.000167 -0.563362 -179.161039 -0.237364 -179.999991 0.000005 -0.963994 174.542807 -4.607109 -0.585656 -0.000001 0.000001 0.102609 68.521086 7.224218 1.312239 25.696796 -7.352694 -0.141540 -0.842768 177.596270 1.947629 -0.000005 -0.000004 -1.018930 -8.895850 1.323166 0.614494 -0.000006 0.000005 -0.170765 71.575936 -6.775916 -2.259871 25.623747 7.352498 -0.249415 
55.392895 -10.899716 85.472084 -0.486683 0.670244 -1.497936 -1.556240 0.415554 -0.224774 0.891982 0.835543 -0.446743 2.537116 0.830115 -0.456824 10.636742 -7.204431 -0.982528 3.264372 3.701022 -0.570233 -6.948683 -67.332982 -8.820593 -52.265991 -114.855314 -50.468203 0.000001 -0.000000 -0.000002 9.295970 -16.519866 1.198853 0.000000 -0.000002 -3.003450 -5.000162 -7.998882 0.000164 -0.244447 54.267058 -0.315434 -35.559587 118.497649 36.563229 -0.000004 -0.000005 0.000002 8.259220 12.526327 -0.405982 -0.000002 -0.000002 3.010550 -5.000208 7.998721 -0.000167 -0.613830 -179.163061 -0.243671 -179.999991 0.000005 -0.963994 174.513410 -4.602912 -0.587638 -0.000001 0.000001 0.103266 68.532096 7.227827 1.302106 25.695687 -7.352698 -0.141612 -0.901378 177.605286 1.958855 -0.000005 -0.000004 -1.018990 -8.951446 1.318124 0.616176 -0.000005 0.000005 -0.172154 71.596331 -6.775568 -2.259976 25.625056 7.352499 -0.251871 
